<?xml version="1.0" encoding="UTF-8"?><svg id="Layer_1" xmlns="http://www.w3.org/2000/svg" viewBox="0 0 48 16"><defs><style>.cls-1{fill:#f49540;}.cls-2,.cls-3{fill:#fff;}.cls-3{fill-rule:evenodd;}</style></defs><rect class="cls-1" width="48" height="16" rx="2" ry="2"/><g><path class="cls-2" d="M5.84,10.25l-1.18-3.51h-.02c0,.08,0,.19,.02,.34,0,.15,.02,.3,.02,.47,0,.17,0,.33,0,.48v2.22h-.69V5.97h1.07l1.13,3.37h.02l1.18-3.37h1.07v4.28h-.73v-2.26c0-.14,0-.29,0-.45,0-.16,.01-.32,.02-.46,0-.15,.01-.26,.02-.34h-.02l-1.22,3.5h-.68Z"/><path class="cls-2" d="M10.8,6.94c.42,0,.74,.09,.96,.27,.22,.18,.33,.47,.33,.85v2.18h-.53l-.15-.45h-.02c-.09,.12-.19,.21-.28,.29-.1,.08-.21,.13-.34,.17-.13,.03-.28,.05-.46,.05-.19,0-.36-.04-.52-.11-.15-.07-.27-.18-.36-.33s-.13-.34-.13-.57c0-.34,.12-.59,.37-.76,.25-.17,.62-.26,1.12-.28l.56-.02v-.16c0-.21-.05-.36-.15-.44s-.24-.13-.42-.13c-.16,0-.32,.02-.47,.07s-.3,.1-.44,.17l-.24-.53c.16-.08,.34-.15,.55-.2,.21-.05,.42-.08,.65-.08Zm.14,1.79c-.33,.01-.56,.07-.69,.17s-.19,.24-.19,.41c0,.15,.05,.26,.14,.33,.09,.07,.21,.1,.35,.1,.22,0,.41-.06,.56-.19s.23-.31,.23-.56v-.28h-.4Z"/><path class="cls-2" d="M14.1,10.31c-.38,0-.68-.14-.92-.42-.23-.28-.35-.7-.35-1.26s.12-.98,.35-1.26c.24-.29,.55-.43,.93-.43,.16,0,.3,.02,.42,.06s.23,.1,.31,.17c.09,.07,.16,.15,.22,.24h.04c-.01-.06-.02-.14-.04-.26-.01-.12-.02-.22-.02-.32v-1.14h.76v4.56h-.59l-.14-.43h-.03c-.06,.09-.13,.17-.22,.24-.09,.07-.19,.13-.31,.18-.12,.04-.26,.07-.43,.07Zm.23-.61c.28,0,.48-.08,.59-.24,.12-.16,.17-.4,.17-.73v-.1c0-.35-.06-.62-.17-.8-.11-.18-.31-.28-.62-.28-.23,0-.4,.09-.53,.28-.12,.19-.19,.46-.19,.8s.06,.61,.19,.79c.12,.18,.3,.27,.54,.27Z"/><path class="cls-2" d="M18.09,6.94c.29,0,.54,.06,.75,.18,.21,.12,.37,.29,.49,.5,.12,.22,.17,.48,.17,.79v.38h-2.15c0,.3,.09,.53,.25,.69,.16,.16,.37,.24,.65,.24,.21,0,.4-.02,.57-.06s.34-.1,.51-.18v.61c-.16,.08-.33,.13-.5,.17-.17,.04-.38,.05-.62,.05-.32,0-.6-.06-.84-.18s-.44-.31-.58-.56c-.14-.25-.21-.56-.21-.92s.06-.69,.19-.94,.3-.45,.52-.58c.22-.13,.49-.19,.79-.19Zm0,.56c-.2,0-.36,.06-.49,.19s-.2,.32-.23,.58h1.4c0-.15-.02-.29-.08-.4-.05-.12-.12-.21-.22-.27-.1-.07-.23-.1-.38-.1Z"/><path class="cls-2" d="M24.14,8.85c-.02-.08-.04-.17-.07-.29-.03-.11-.06-.23-.09-.36s-.06-.24-.08-.34-.04-.18-.05-.24h-.02c-.01,.06-.03,.14-.05,.24s-.05,.22-.08,.34-.06,.24-.09,.36c-.03,.12-.05,.21-.08,.29l-.38,1.39h-.83l-.91-3.26h.76l.4,1.55c.03,.1,.06,.22,.08,.35,.03,.13,.05,.26,.07,.38,.02,.12,.03,.22,.04,.3h.02c0-.05,.02-.12,.03-.21,.01-.09,.03-.18,.04-.27,.02-.09,.04-.18,.05-.26,.02-.08,.03-.14,.04-.19l.47-1.66h.83l.45,1.66c.02,.07,.04,.17,.07,.28,.02,.12,.05,.23,.07,.35,.02,.12,.03,.21,.04,.29h.02c0-.07,.02-.16,.04-.28,.02-.12,.04-.25,.07-.38,.03-.14,.06-.26,.09-.37l.41-1.55h.75l-.92,3.26h-.84l-.36-1.4Z"/><path class="cls-2" d="M27.19,5.74c.11,0,.21,.03,.29,.09s.13,.16,.13,.31-.04,.25-.13,.31-.18,.09-.29,.09c-.12,0-.22-.03-.3-.09-.08-.06-.12-.17-.12-.31s.04-.25,.12-.31c.08-.06,.18-.09,.3-.09Zm.38,1.25v3.25h-.76v-3.25h.76Z"/><path class="cls-2" d="M29.79,9.7c.1,0,.19,0,.28-.03,.09-.02,.17-.04,.25-.06v.56c-.08,.04-.18,.07-.31,.09s-.26,.04-.4,.04c-.18,0-.35-.03-.5-.09-.15-.06-.27-.17-.36-.32-.09-.15-.14-.36-.14-.64v-1.69h-.44v-.33l.48-.26,.24-.69h.47v.71h.92v.57h-.92v1.69c0,.15,.04,.27,.12,.34,.08,.07,.18,.11,.31,.11Z"/><path class="cls-2" d="M31.73,6.78c0,.13,0,.25-.02,.38,0,.12-.02,.21-.03,.27h.05c.07-.11,.15-.2,.25-.27,.1-.07,.21-.12,.33-.16,.12-.04,.25-.05,.38-.05,.24,0,.45,.04,.63,.13s.31,.21,.41,.39c.09,.17,.14,.4,.14,.68v2.12h-.76v-1.97c0-.24-.05-.43-.14-.55-.1-.12-.25-.18-.46-.18s-.36,.04-.47,.13c-.12,.09-.2,.21-.25,.38-.05,.17-.07,.37-.07,.61v1.58h-.76V5.69h.76v1.09Z"/></g><path class="cls-3" d="M40.64,5.4c1.86-1.92,6.52,1.44,0,5.75-6.52-4.31-1.86-7.66,0-5.75"/></svg>