<?xml version="1.0" encoding="UTF-8"?><svg id="Layer_1" xmlns="http://www.w3.org/2000/svg" viewBox="0 0 124.69 192.98"><defs><style>.cls-1{fill:#d04b4a;}</style></defs><g><path class="cls-1" d="M20.76,42.11c3.67,56.49,55.3,63.69,60.06,106.48,3,27.01-10.3,38.03-18.4,41.93C58.54,134.04,7.9,127.14,2.98,84.36-.12,57.36,12.68,46.04,20.76,42.11Z"/><path class="cls-1" d="M18.26,42.11c.89,13.3,4.64,26.15,11.69,37.51,5.92,9.54,13.71,17.65,21.58,25.58,3.69,3.72,7.4,7.42,10.88,11.34,.85,.96,1.69,1.93,2.51,2.91,.39,.47,.78,.95,1.17,1.43,.18,.22,.36,.45,.53,.68,.31,.39,.07,.08,.43,.56,1.53,2.02,2.97,4.1,4.27,6.27,2.75,4.58,4.55,8.74,5.85,13.93,1.65,6.59,2.1,13.62,1.17,20.58-.8,6.01-2.71,11.46-6.22,16.34-.16,.23-.33,.45-.5,.68,.25-.33-.28,.34-.34,.42-.38,.47-.78,.93-1.19,1.38-.75,.82-1.55,1.6-2.38,2.33-.38,.34-.77,.66-1.16,.98-.1,.08-.21,.16-.31,.24,.07-.05,.41-.31,.04-.04-.2,.15-.41,.3-.62,.45-.75,.54-1.53,1.04-2.33,1.51-.71,.42-1.44,.8-2.18,1.16l3.76,2.16c-.94-13.27-4.66-26.1-11.65-37.46-5.84-9.49-13.53-17.57-21.3-25.47-7.23-7.35-14.38-14.46-19.53-23.11-2.74-4.61-4.54-8.81-5.83-14.05-1.65-6.7-2.11-13.9-1.17-20.97,.77-5.83,2.58-11.15,5.87-15.94,1.13-1.65,2.53-3.29,4.3-4.9,.35-.32,.7-.63,1.07-.93,.2-.17,.41-.33,.61-.49,.28-.23-.24,.17,.25-.19,.78-.56,1.56-1.1,2.38-1.59,.69-.41,1.39-.79,2.11-1.14,1.21-.59,1.54-2.32,.9-3.42-.72-1.24-2.2-1.49-3.42-.9-8.88,4.35-15.02,12.86-17.66,22.25-2.11,7.48-2.23,15.47-1.23,23.14,.74,5.71,2.32,11.18,4.74,16.41,4.42,9.54,11.53,17.5,18.79,24.98s15.53,15.46,21.62,24.02c7.32,10.28,11.99,21.78,13.64,34.34,.24,1.8,.4,3.62,.53,5.43,.14,1.97,2,3.01,3.76,2.16,8.95-4.34,15.32-12.64,18.12-22.09,2.21-7.44,2.38-15.45,1.38-23.1-.74-5.71-2.32-11.18-4.76-16.4-4.49-9.59-11.7-17.56-19.04-25.05-3.77-3.85-7.62-7.62-11.32-11.54s-7.51-8.29-10.59-12.59c-7.34-10.24-12.06-21.7-13.69-34.25-.24-1.84-.41-3.69-.53-5.55-.09-1.35-1.08-2.5-2.5-2.5-1.28,0-2.59,1.15-2.5,2.5Z"/></g><g><path class="cls-1" d="M61.68,2.5c3.67,56.49,55.3,63.69,60.06,106.48,3,27.01-10.3,38.03-18.4,41.93-3.88-56.48-54.52-63.38-59.44-106.16C40.81,17.75,53.6,6.43,61.68,2.5Z"/><path class="cls-1" d="M59.18,2.5c.89,13.3,4.64,26.15,11.69,37.51,5.92,9.54,13.71,17.65,21.58,25.58,3.69,3.72,7.4,7.42,10.88,11.34,.85,.96,1.69,1.93,2.51,2.91,.39,.47,.78,.95,1.17,1.43,.18,.22,.36,.45,.53,.68,.31,.39,.07,.08,.43,.56,1.53,2.02,2.97,4.1,4.27,6.27,2.75,4.58,4.55,8.74,5.85,13.93,1.65,6.59,2.1,13.62,1.17,20.58-.8,6.01-2.71,11.46-6.22,16.34-.16,.23-.33,.45-.5,.68,.25-.33-.28,.34-.34,.42-.38,.47-.78,.93-1.19,1.38-.75,.82-1.55,1.6-2.38,2.33-.38,.34-.77,.66-1.16,.98-.1,.08-.21,.16-.31,.24,.07-.05,.41-.31,.04-.04-.2,.15-.41,.3-.62,.45-.75,.54-1.53,1.04-2.33,1.51-.71,.42-1.44,.8-2.18,1.16l3.76,2.16c-.94-13.27-4.66-26.1-11.65-37.46-5.84-9.49-13.53-17.57-21.3-25.47-7.23-7.35-14.38-14.46-19.53-23.11-2.74-4.61-4.54-8.81-5.83-14.05-1.65-6.7-2.11-13.9-1.17-20.97,.77-5.83,2.58-11.15,5.87-15.94,1.13-1.65,2.53-3.29,4.3-4.9,.35-.32,.7-.63,1.07-.93,.2-.17,.41-.33,.61-.49,.28-.23-.24,.17,.25-.19,.78-.56,1.56-1.1,2.38-1.59,.69-.41,1.39-.79,2.11-1.14,1.21-.59,1.54-2.32,.9-3.42-.72-1.24-2.2-1.49-3.42-.9-8.88,4.35-15.02,12.86-17.66,22.25-2.11,7.48-2.23,15.47-1.23,23.14,.74,5.71,2.32,11.18,4.74,16.41,4.42,9.54,11.53,17.5,18.79,24.98s15.53,15.46,21.62,24.02c7.32,10.28,11.99,21.78,13.64,34.34,.24,1.8,.4,3.62,.53,5.43,.14,1.97,2,3.01,3.76,2.16,8.95-4.34,15.32-12.64,18.12-22.09,2.21-7.44,2.38-15.45,1.38-23.1-.74-5.71-2.32-11.18-4.76-16.4-4.49-9.59-11.7-17.56-19.04-25.05-3.77-3.85-7.62-7.62-11.32-11.54s-7.51-8.29-10.59-12.59c-7.34-10.24-12.06-21.7-13.69-34.25-.24-1.84-.41-3.69-.53-5.55-.09-1.35-1.08-2.5-2.5-2.5-1.28,0-2.59,1.15-2.5,2.5Z"/></g></svg>