<?xml version="1.0" encoding="utf-8"?>
<!-- Generator: Adobe Illustrator 27.0.1, SVG Export Plug-In . SVG Version: 6.00 Build 0)  -->
<svg version="1.1" id="Layer_1" xmlns="http://www.w3.org/2000/svg" xmlns:xlink="http://www.w3.org/1999/xlink" x="0px" y="0px"
	 viewBox="0 0 59.5 83.9" style="enable-background:new 0 0 59.5 83.9;" xml:space="preserve">
<style type="text/css">
	.st0{fill:#EEECE1;}
</style>
<path class="st0" d="M23.1,67.7c-2.6-1.2-6.5-3-6.6-4.5c-0.2-1.7,0.1-3.5,0-5.3c-0.2-2.3-0.8-4.4-0.5-6.8l-1,3.8
	c0.7-1.4,1.7-2.8,2.7-4c0.6-0.7,1.3-1.3,1.9-1.9c-1.4,0.5-1.3,0.5,0.4-0.1c2.2-1.1,4.1-2.2,5.3-4.5c0.5-0.9,0.8-1.8,1-2.8
	c0.2-2.2,0.3-2.7,0.2-1.5L23,44.7l0.6-0.3l-3.8,1c3.3-0.4,6.1-1.2,8-4.1c1.8-2.7,1.4-5.5,2.1-8.4c0.1-0.2,1.1-3.3,1.3-2.7
	c-0.8,1.2-1.6,1.4-2.3,0.6c-0.7-0.6-0.8-0.5-0.2,0.3c-0.3,2.7,2,6.8,3.1,9.3c2.3,5.6,7.9,11,8.4,17.1c0.2,2.2,0.3,5.7-1.1,7.7
	c-1.4,2-4.1,2.7-5.5,5.2c-3.3,6.1,3.8,15,10.3,10.3l0.5-0.4c7.6-5.6,0.6-18.4-7.6-12.9c-2.9,1.9-9,2.8-11.9,0.6l3.5,4.5L28,71.2v4
	c0.7-2.1,1.2-4.5,0.6-6.7c-0.3-0.9-1.7-3-1.8-3.2c-1.1-2.8-0.6-7.2-0.6-10.2c0.1-3.6,0.8-6.8,2.4-10c1.3-2.4,3.3-6.6,5.3-8.5
	l-7.3,1.9l0.5,0.2l-4.5-3.5c1.1,1.6,1.4,3.9,2,5.7c0.8,2.4,1.8,4.8,2.8,7.1c2.1,4.8,4.5,9.7,5.4,14.9c0.1,0.7,0,2.4,0.3,3
	c-0.2,1.4,0.3,1.2,1.3-0.5c1.6-0.8,1.8-1.3,0.6-1.5c-0.6-1.1-3.4-1-4.1-2.7c-1.6-3.5,0.9-10.2,1.7-13.7c-4.2,1.1-8.4,2.2-12.5,3.3
	c3.2,3.6,3.6,11.1,3.8,15.7c0.5,9.6,15.5,9.7,15,0c-0.5-9-2.1-19.3-8.2-26.3c-3.7-4.2-11.2-1.9-12.5,3.3c-2.2,8.9-4.9,20.3,1.7,28
	c5.4,6.3,17.4,10.9,24.4,4.5s2.9-19.3-0.3-26.9c-2-4.9-4.2-9.7-5.8-14.7c-1.5-4.6-2.8-8.8-7.7-10.5c-2.6-0.9-5.4,0.2-7.3,1.9
	c-2.8,2.5-4.9,6.8-6.8,10c-2.5,4.3-4.2,8.9-4.9,13.8c-1.1,8.5-1.1,18.9,4.4,25.9l-1.9-7.3c-0.5,3.4-1.5,6.4,0.5,9.6s5.6,4.5,9.2,5.1
	c7,1.2,14.6,1.1,20.6-3l-7.6-12.9l-0.5,0.4l10.3,10.3c-0.9,1.7,2.2-1.1,2.9-1.8c1.5-1.5,2.6-3.4,3.4-5.3c1.8-4.1,2.4-8.9,2.2-13.4
	c-0.4-9.9-7.4-16-10.4-24.9c-2.8-8.4-5.5-16.5-16-16.3c-5.3,0.1-8.3,2.8-11,7.1c-1.1,1.8-2,3.6-2.5,5.7c-0.2,1-0.4,2.2-0.4,3.2
	c0.1,3.4-1.2,0.5,2-0.9l3.8-1c-3.2,0.4-6.2,1.2-7.9,4.1c-0.2,0.3-1.7,3.9-1.2,4.4c-0.5-0.4,6.3-6.5-0.1-2.7c-4.4,2.7-9.4,9-10.5,14
	c-0.7,3.3,0.4,6.2,0.6,9.5c0.2,3-0.5,5.9,0.5,8.9c1.9,6.1,8.1,9.6,13.5,12.2C24.1,84.8,31.8,71.9,23.1,67.7L23.1,67.7L23.1,67.7z"/>
<path class="st0" d="M9.9,75.2c-1.7-1-2.5-2.9-3.1-4.6c-0.8-2.1-1.5-4.1-2-6.3c-1-4.5-0.4-9.1,0.7-13.5c1-3.9,3.7-6.6,6.4-9.4
	s4.8-5.7,6.2-9.4c0.9-2.3,1.3-4.7,2.1-7s2.1-4.2,3.9-5.8c0.9-0.9-0.5-2.3-1.4-1.4c-1.5,1.5-2.8,3.2-3.7,5.1c-0.9,2-1.4,4.2-2,6.3
	c-0.7,2.3-1.6,4.5-2.9,6.5c-1.1,1.7-2.6,3.2-4,4.7c-2.9,2.9-5.5,5.8-6.6,9.9c-1.1,4.6-1.7,9.5-0.7,14.1C3.4,67,4.2,69.6,5.2,72
	c0.8,2,1.8,3.8,3.7,5C10,77.7,11,75.9,9.9,75.2L9.9,75.2L9.9,75.2z"/>
<path class="st0" d="M5.7,70.6c-1.9-4.9-5.3-11.4-2-16.4l-1.9-0.5c0.3,2.7,0.4,5.4,0.5,8.1l1-1H3c0.2,0.1,0.5,0.2,0.7,0.3
	c-0.4-0.3-0.3-1.5-0.3-1.9c0-0.6-0.1-1.2-0.1-1.9c0-1.2,0.1-2.5,0.2-3.7c0.3-2.3,0.7-4.8,1.8-6.9s2.9-3.7,4.5-5.4
	c1.8-1.9,3.6-3.8,5.4-5.7c0.9-0.9-0.5-2.3-1.4-1.4c-2.2,2.3-4.4,4.6-6.6,6.9c-2,2.1-3.7,4.1-4.6,6.8s-1.3,5.6-1.3,8.4
	c0,1.5,0,3.1,0.2,4.7c0.1,1,0.6,1.8,1.7,1.8c0.5,0,1-0.5,1-1c-0.1-2.7-0.2-5.4-0.5-8.1c-0.1-1-1.3-1.4-1.9-0.5
	c-3.7,5.6-0.3,12.4,1.8,18C4.2,72.3,6.1,71.8,5.7,70.6L5.7,70.6L5.7,70.6z"/>
<path class="st0" d="M17.8,50.5c-0.9,1.3-1.6,2.8-2,4.3c-0.4,1.4-0.7,3-0.3,4.4c0.4,1.5,1.8,2.4,3.4,2.2s2.8-1,3.9-1.9
	c2.1-1.7,3.7-4.1,4.3-6.7c0.3-1.3,0.6-3,0-4.2s-2.1-1.8-3.5-1.7c-0.9,0-1.8,0.2-2.6,0.6c-1.2,0.6-2.2,1.7-3.1,2.8
	c-0.9,1,0.6,2.4,1.4,1.4c0.7-0.7,1.3-1.5,2.1-2.1c0.5-0.4,0.8-0.5,1.5-0.6c-0.2,0,0.1,0,0.2,0c0.1,0,0.3,0,0.4,0c0.5,0,1,0,1.4,0.2
	c0.8,0.4,0.5,1.9,0.4,2.6c-0.4,2-1.4,3.9-2.8,5.4c-0.7,0.7-1.5,1.3-2.4,1.8c-0.7,0.4-2.1,0.9-2.6-0.1c-0.3-0.5-0.2-1.2-0.1-1.8
	c0.1-0.7,0.2-1.3,0.4-1.9c0.4-1.3,1-2.6,1.8-3.7C20.2,50.4,18.5,49.4,17.8,50.5L17.8,50.5L17.8,50.5z"/>
<path class="st0" d="M13.9,45.3c-0.2,0.2-0.5,0.5-0.6,0.8s-0.4,0.6-0.5,0.9c-0.2,0.4-0.4,0.8-0.4,1.2c0,0.5,0.2,1.1,0.6,1.5
	c0.5,0.5,1.3,0.6,1.9,0.3c0.4-0.2,0.8-0.6,1.1-1c0.6-0.7,1.3-1.7,1.2-2.7c-0.1-0.7-0.5-1.4-1.2-1.6S14.5,44.8,13.9,45.3
	c-0.2,0.2-0.3,0.5-0.3,0.7c0,0.2,0.1,0.5,0.3,0.7s0.4,0.3,0.7,0.3c0.3,0,0.5-0.1,0.7-0.3c-0.2,0.2,0,0,0,0c0.1,0,0.1-0.1,0.1-0.1
	c0,0,0.1,0,0.1,0c0.1,0,0,0-0.1,0c0.1,0,0.1,0,0.2,0l-0.3,0c0.1,0,0.1,0,0.2,0l-0.3,0l0.1,0c0,0-0.2-0.1-0.1,0s-0.1-0.1-0.1-0.1
	c0.1,0.1-0.1-0.2-0.1-0.1c0,0,0,0,0,0.1c0.1,0.1-0.1-0.2-0.1-0.1c0,0.1,0,0.1,0.1,0.2l0-0.3c0,0.1,0,0.3,0,0.4l0-0.3
	c0,0.1-0.1,0.2-0.1,0.3c0,0,0,0.1,0,0.1l0.1-0.1c0,0.1-0.1,0.1-0.1,0.2c-0.1,0.1-0.1,0.2-0.2,0.3c0,0.1-0.1,0.1-0.1,0.2
	c-0.1,0.2,0.1-0.2,0,0c-0.2,0.2-0.3,0.4-0.5,0.6c-0.1,0.1-0.2,0.2-0.3,0.3c0.1-0.1,0.2-0.1,0.1-0.1c0,0-0.1,0-0.1,0
	c0.2-0.1,0.2-0.1,0.1,0c0,0-0.1,0-0.1,0l0.3,0c0,0-0.1,0-0.1,0l0.3,0c0,0-0.1,0-0.1,0c0,0,0.3,0.1,0.1,0s0.1,0.1,0.1,0.1l-0.1-0.1
	c0,0,0.1,0.2,0.1,0.1c0,0,0-0.1-0.1-0.1c0.1,0.2,0.1,0.2,0,0.1c0,0,0-0.1,0-0.1l0,0.3c0-0.1,0-0.2,0-0.2l0,0.3c0-0.1,0-0.2,0.1-0.2
	c0,0,0-0.1,0-0.1c0.1-0.2-0.1,0.3,0,0c0.1-0.2,0.2-0.4,0.3-0.6s0.2-0.4,0.4-0.6c0.1-0.1,0.2-0.2,0,0c0,0,0.1-0.1,0.1-0.1
	c0.1-0.1,0.1-0.1,0.2-0.2c0.4-0.4,0.4-1,0-1.4S14.3,44.9,13.9,45.3L13.9,45.3L13.9,45.3z"/>
<path class="st0" d="M15.9,47.6v-1c0-0.1,0-0.3-0.1-0.4c0-0.1-0.1-0.2-0.2-0.3c-0.1-0.1-0.2-0.2-0.3-0.2c-0.1-0.1-0.2-0.1-0.4-0.1
	l-0.3,0c-0.2,0-0.3,0.1-0.4,0.3c-0.2,0.2-0.3,0.4-0.3,0.7v1c0,0.1,0,0.3,0.1,0.4c0,0.1,0.1,0.2,0.2,0.3c0.1,0.1,0.2,0.2,0.3,0.2
	c0.1,0.1,0.2,0.1,0.4,0.1l0.3,0c0.2,0,0.3-0.1,0.4-0.3C15.8,48.1,15.9,47.8,15.9,47.6L15.9,47.6z"/>
<path class="st0" d="M19.4,58.7c-0.9-0.2-0.9-1.2-0.8-2c0.2-1.2,0.7-2.3,1.2-3.4c0.4-0.9,0.9-1.9,1.7-2.6c0.6-0.5,1.7-0.8,2.4-0.4
	c0.6,0.2,0,1.8-0.1,2.3c-0.3,0.9-0.7,1.8-1.3,2.6s-1.2,1.4-2,2c-0.2,0.1-0.4,0.2-0.6,0.4c0,0-0.1,0-0.2,0c0.3-0.1,0.1,0.2,0.1,0
	c-0.1-0.5,0-0.9,0.2-1.4c0.5-1.2,1.2-2.4,1.6-3.6c0.2-0.5,0.3-1.1,0.7-1.3c0.2-0.1,0.4-0.2,0.6-0.2c0.1,0,0.2,0,0.3,0
	c0.1,0,0.5,0.1,0.3-0.1l-0.4-0.4c0-0.2,0-0.2,0,0c0,0.1,0,0.2,0,0.3c0,0.2,0,0.4,0,0.5c0,0.4,0,0.7-0.1,1.1c-0.2,0.6-0.6,1.1-1,1.5
	c-0.9,1-2,2.1-3.4,2.4l1.2,0.7c-0.1-0.3,0.4-1,0.5-1.3c0.3-0.5,0.5-1,0.9-1.5c0.3-0.4,0.6-0.8,1-1.2c0.2-0.3,0.7-0.9,1.1-0.9l-1-1
	c0,0.7-0.1,1.4-0.5,2c-0.2,0.3-0.4,0.5-0.7,0.8C21.1,54,21,54,20.8,54.1c-0.1,0-0.2,0.1-0.3,0.1c-0.1,0,0,0.1,0.2,0l0.4,0.4
	c0.1,0.2-0.1,0.6,0.1,0.2c0.1-0.1,0.1-0.2,0.2-0.3c0.2-0.2,0.3-0.4,0.5-0.6c0.4-0.4,0.8-0.8,1.2-1.2s0.4-1.1,0-1.4
	c-0.4-0.4-1-0.3-1.4,0C21,52.1,20.1,53,19.5,54c-0.3,0.5-0.4,1.1,0,1.7c0.4,0.6,1.1,0.7,1.8,0.5c2-0.7,3.3-3,3.2-5
	c0-0.5-0.4-1.1-1-1c-1.6,0.2-2.8,1.7-3.7,3c-0.4,0.6-0.8,1.3-1.1,2c-0.4,0.8-0.8,1.7-0.6,2.6c0.1,0.5,0.7,0.8,1.2,0.7
	c1-0.2,1.8-0.8,2.6-1.4c0.7-0.6,1.4-1.2,2-1.9c0.6-0.7,1.1-1.5,1.3-2.5c0.1-0.5,0.1-1,0.1-1.5s0-1.1-0.4-1.5c-0.6-0.8-2-0.5-2.9-0.2
	c-1,0.3-1.7,1.1-2,2.1c-0.4,0.9-0.7,1.9-1.1,2.8s-1,1.8-1.1,2.8s0.2,2.2,1.3,2.6s2-0.3,2.8-0.9c1.4-1.1,2.6-2.5,3.3-4.1
	c0.4-0.8,0.7-1.7,0.8-2.6c0.2-1,0.3-2.1-0.5-2.9c-1.4-1.3-4-0.9-5.3,0.2c-0.8,0.7-1.3,1.6-1.8,2.5c-0.5,1.1-1,2.2-1.4,3.3
	s-0.7,2.3-0.3,3.5c0.3,1,1.1,1.9,2.1,2.1C20.1,60.9,20.6,59,19.4,58.7L19.4,58.7L19.4,58.7z"/>
<path class="st0" d="M19.2,28.4c0.9-4.6,4.3-8.6,8.8-10.1c1.2-0.4,0.7-2.3-0.5-1.9c-5.1,1.7-9.1,6.2-10.1,11.5
	c-0.1,0.5,0.1,1.1,0.7,1.2C18.5,29.2,19.1,28.9,19.2,28.4C19.2,28.4,19.2,28.4,19.2,28.4z"/>
<path class="st0" d="M31.9,18.6c4.3,1.1,5.5,6,5.9,9.8c0.3,2.3,0.5,4.6,1.1,6.9s1.3,4.3,1.7,6.6s1.3,3.9,2.2,5.9
	c1,2.2,1.7,4.7,2.2,7s0.9,4.8,0.5,7.3c-0.4,2.2-1.3,4.3-2.1,6.3s-1.4,4.4-2,6.6c-0.6,2.1-1.5,4-3.2,5.4c-1,0.8,0.4,2.2,1.4,1.4
	c3.3-2.6,3.8-7,5-10.8c0.8-2.3,1.8-4.6,2.5-6.9s0.8-4.8,0.4-7.3s-1.2-5-2-7.5s-2.2-4.4-2.8-6.8c-0.2-1.1-0.4-2.3-0.6-3.4
	c-0.3-1.4-0.8-2.7-1.2-4c-0.7-2.5-0.9-5.1-1.3-7.7c-0.6-4.5-2.4-9.6-7.3-10.8C31.2,16.3,30.7,18.2,31.9,18.6L31.9,18.6L31.9,18.6z"
	/>
<path class="st0" d="M17.9,81.5c5.6,0.4,11.2-0.7,16.3-3.2c2.4-1.2,4.9-2.7,7-4.3s3.4-3.9,4.6-6.3c0.6-1.2-1.2-2.2-1.7-1
	c-1.1,2.3-2.3,4.4-4.4,5.9s-4.2,2.8-6.5,3.9c-4.7,2.4-10,3.3-15.3,3C16.6,79.5,16.6,81.5,17.9,81.5L17.9,81.5L17.9,81.5z"/>
<path class="st0" d="M44.8,44.7c-1.2-6.1-2.5-12.1-4-18.1c-0.3-1.3-2.1-0.7-1.9,0.5c0.3,2,0.7,4,1,5.9c0.2,1.1,1.9,0.8,2-0.3
	c0.1-4.5-0.4-9.5-3.9-12.8l-1.2,1.6c2.4,1.8,3.8,4.4,4.2,7.4s0.2,5.8,1.9,8.4c0.8,1.2,1.8,2.3,2.5,3.6c0.8,1.3,1.6,2.7,2.3,4
	c1.7,3,3.1,6.1,4.4,9.2c0.4,0.9,2.1,1,2-0.3c-0.2-2.4-0.8-4.7-1.9-6.9c-0.5-1-1.8-0.4-1.9,0.5c-0.1,1.9,0.7,3.6,1.4,5.2
	c1,2.2,1.3,4,1,6.4c-0.5,4.4-1.2,9.3-3.8,13c-1.3,1.8-3,3.3-4.8,4.6s-3.7,2.7-5.8,3.5c-2.2,0.8-4.6,0.8-6.9,0.8
	c-0.7,0-6.7,0-6.7,0.1l-1.2,1.2c5.9,1.7,11.6-1.8,17.6-1.2c0.5,0.1,1-0.5,1-1c-0.1-2,0-3.9,0.4-5.9c0.2-0.8-0.7-1.6-1.5-1.1
	c-2.5,1.3-4.8,2.8-7.1,4.4s-4.6,3.4-7.4,2.5l-0.3,2c5.4-0.3,10.5-1.8,15.2-4.5l-1.4-1.4c-0.9,1.2-2,2.3-3.2,3.1l1.4,0.4
	c-0.3-0.4,4-3.7,4.5-4.1c1-0.8-0.4-2.2-1.4-1.4c-1.4,1.1-2.9,2.2-4.1,3.5c-0.8,0.8-1.4,2-0.6,3c0.3,0.4,0.9,0.7,1.4,0.4
	c1.5-1.1,2.8-2.3,4-3.8c0.6-0.8-0.6-1.8-1.4-1.4c-4.3,2.5-9.2,3.9-14.2,4.2c-1.1,0.1-1.4,1.6-0.3,2c2.8,0.9,5.5-0.3,7.9-1.9
	c2.7-1.8,5.3-3.6,8.2-5.1l-1.5-1.1c-0.4,2.1-0.5,4.2-0.4,6.4l1-1c-5.7-0.5-11.4,2.9-17.1,1.3c-0.8-0.2-1.3,0.5-1.2,1.2
	c0.2,1.7,2.4,1.4,3.6,1.4c2.2,0,4.4,0.1,6.6,0c2,0,4-0.2,5.9-0.8s3.5-1.7,5-2.8c3.2-2.2,6.2-4.6,7.9-8.2s2.3-7.6,2.8-11.6
	c0.3-2.1,0.3-4.2-0.5-6.2s-2-3.8-1.9-5.9l-1.9,0.5c0.9,1.9,1.4,3.9,1.6,5.9l2-0.3c-1.3-3.2-2.8-6.4-4.5-9.5
	c-0.8-1.4-1.6-2.8-2.5-4.2s-1.9-2.6-2.8-3.9c-1.7-2.8-1-6.2-1.8-9.3c-0.8-2.8-2.5-5.1-4.8-6.8c-0.9-0.7-2,0.8-1.2,1.6
	c3,2.9,3.4,7.4,3.3,11.4l2-0.3c-0.3-2-0.7-4-1-5.9L38.8,27c1.5,6,2.9,12,4,18.1C43.1,46.4,45,45.9,44.8,44.7L44.8,44.7L44.8,44.7z"
	/>
<path class="st0" d="M43,78.4c5.5-3.5,8.2-9.7,10-15.7c0.4-1.2-1.5-1.7-1.9-0.5c-1.1,3.2-2.2,6.4-3.4,9.5l1.9,0.5
	c0.3-0.8,1-1.3,1.5-2s0.9-1.3,1.2-2.1c0.6-1.8,0.5-3.9,0.6-5.8c0.1-2.3,0.2-4.6,0.2-6.8c0-1.3-0.3-2.7-1.8-3.1
	c-0.7-0.2-1.5,0.5-1.2,1.2c0.7,2.3,1.4,4.5,2.2,6.8c0.3,1,2,0.9,2-0.3c0-1.9,0-3.9-0.8-5.7s-2.2-3.2-3.3-4.8
	c-2.4-3.5-4.1-7.3-5.9-11.1l-1.7,1c2.5,3.9,4.7,8,6.5,12.3c0.4,0.9,2.1,1,2-0.3c-0.4-3-2-5.4-3.6-7.9c-0.8-1.2-1.6-2.5-2.1-3.9
	c-0.4-1.2-0.5-2.8-2-3.1c-0.6-0.1-1.3,0.3-1.3,1c0.2,3.2,0.4,6.5,1.5,9.5c0.6,1.6,1.5,3,2.2,4.6s0.9,3.2,1,4.8
	c0.3,6.9-3.1,13.2-4.2,19.9c-0.2,1.1,1.2,1.8,1.8,0.8c0.8-1.3,2.1-2.2,3-3.5c0.9-1.1,1.4-2.4,1.6-3.8c0.3-1.6,0.4-3.2,0.7-4.7
	c0.4-1.6,0.9-3.2,1.2-4.9c0.6-3,0.4-5.8-1.4-8.4c-0.9-1.3-1.9-2.4-2.6-3.8c-0.8-1.6-1.3-3.3-1.9-4.9l-1.9,0.5c0.8,2.2,2,4,3.5,5.7
	c1.7,2,3.3,3.8,2.9,6.6s-1.6,5.4-2.4,8c-0.9,2.8-1.8,5.6-2.7,8.4c-0.4,1.2,1.2,1.6,1.8,0.8c2.3-3,3.8-6.5,5.2-10
	c0.7-1.7,1.3-3.1,0.2-4.8s-2.4-3.4-3.5-5c-0.7-1-2-0.3-1.8,0.8c0.4,2.6,0.7,5.2,1.1,7.8c0.1,1,1.8,0.9,1.9,0c0.6-3.6,1.2-7.4,0-11
	c-0.4-1.1-1.9-0.9-2,0.3c-0.2,2.1,0,4.1,0.3,6.2c0.2,1.3,2.1,0.7,1.9-0.5c-0.3-1.9-0.4-3.8-0.2-5.6l-2,0.3c1.1,3.2,0.6,6.6,0,9.9
	h1.9c-0.4-2.6-0.7-5.2-1.1-7.8l-1.8,0.8c1,1.4,2,2.9,3,4.3c0.6,0.8,1,1.5,0.6,2.5c-0.3,0.8-0.6,1.5-0.9,2.3
	c-1.2,3.1-2.6,6.1-4.6,8.7l1.8,0.8c0.9-2.9,1.8-5.7,2.7-8.6s2.1-5.6,2.4-8.4c0.3-2.5-0.6-4.5-2.1-6.4c-1.7-2.1-3.4-3.8-4.3-6.4
	c-0.4-1.2-2.3-0.7-1.9,0.5c0.9,2.8,1.9,5.5,3.7,7.9c0.9,1.2,1.9,2.4,2.3,3.9s0.2,3.2-0.2,4.7s-0.8,2.9-1.2,4.4s-0.4,2.9-0.7,4.3
	c-0.3,1.5-0.7,2.8-1.8,4c-0.9,1.1-2,2-2.8,3.2l1.8,0.8c1.2-6.7,4.5-13.1,4.3-20c-0.1-3.3-1.2-6-2.6-9c-1.6-3.2-1.9-6.9-2.1-10.4
	l-1.3,1c0.4,0.1,0.9,2.5,1.1,2.9c0.5,1.2,1.2,2.2,1.9,3.3c1.3,2.1,2.9,4.2,3.2,6.8l2-0.3c-1.8-4.5-4.1-8.7-6.7-12.8
	c-0.7-1.1-2.3-0.2-1.7,1c1.6,3.5,3.3,7.1,5.4,10.4c1,1.5,2.3,2.9,3.3,4.5c1.1,1.8,1.1,3.8,1.1,5.8l2-0.3c-0.8-2.2-1.5-4.5-2.2-6.8
	l-1.2,1.2c0.7,0.2,0.2,4,0.2,4.6c-0.1,1.8-0.1,3.6-0.2,5.4c0,1.6-0.1,3.2-1.1,4.5c-0.8,1-1.6,1.6-2,2.8s1.5,1.7,1.9,0.5
	c1.1-3.2,2.2-6.4,3.4-9.5L51,62.1c-1.6,5.5-4,11.3-9.1,14.5C40.9,77.3,41.9,79,43,78.4L43,78.4L43,78.4z"/>
<path class="st0" d="M31.1,15.4c-0.4,0.2-0.4-0.3-0.4-0.6c0-0.6,0-1.3,0-1.9c0-1.2-0.2-2.6,0-3.8s0.9-2.2,1.5-3.2
	c0.3-0.4,0.6-0.9,0.9-1.3c0.4-0.4,0.8-0.7,1.2-1.1c0.1,0,0.1-0.1,0.2-0.1c-0.1-0.5-0.2-0.7-0.3-0.4c-0.2,0.1-0.5,0.6-0.6,0.8
	c-0.3,0.5-0.7,0.9-1,1.4c-0.6,1.1-1.1,2.2-1.2,3.4c-0.4,2.6-0.5,5.4-0.7,8l1.5-0.9c-0.7-0.4-0.7-1.4-0.6-2.1c0-1.2,0.2-2.4,0.4-3.6
	s0.6-2.4,1-3.5c0.2-0.6,0.6-2.2,1.4-2.3c0.5-0.1,1-0.4,1-1c0-0.5-0.5-1.1-1-1c-1.5,0.2-2.3,1.3-2.8,2.6c-0.6,1.5-1.1,3.1-1.5,4.8
	c-0.3,1.5-0.5,3.1-0.5,4.7c0,1.3,0.4,2.7,1.6,3.3c0.7,0.4,1.4-0.1,1.5-0.9c0.1-1.4,0.2-2.8,0.3-4.2s0.2-2.8,0.5-4.1
	c0.3-1.2,0.9-2.3,1.7-3.3c0.7-0.9,1.8-2,0.8-3.1c-1.8-2-4.4,1.3-5.3,2.7c-0.7,1-1.4,2.1-1.7,3.3c-0.4,1.3-0.3,2.7-0.2,4
	c0,0.8,0,1.6,0,2.4c0,0.7,0,1.5,0.4,2.1c0.6,1,2,1.3,3,0.7C33.2,16.5,32.2,14.8,31.1,15.4L31.1,15.4L31.1,15.4z"/>
<path class="st0" d="M37.4,9c1.3-1.2,2.8-2.4,4.3-3.3s3.2,0.4,4.9,0c1-0.2,0.9-1.6,0-1.9S44.9,3.2,44,2.9l-0.3,2
	c4.8,0,8.6,4.2,11.4,7.7l0.7-1.7c-1.6,0-3.2-0.1-4.7,0.3c-1.5,0.3-3,0.9-4.5,0.6c-1.4-0.3-2.7-1.2-3.9-1.9c-1.5-0.9-3-1.8-4.5-2.7
	L37.4,9c3.9,0.6,8.1,1.2,11.8,3l0.2-1.8c-2.3,0.4-4.7,0-6.9-1.1l-0.8,1.8c1.1,0.1,1.9,0.8,2.8,1.4s1.9,0.9,3,0.9
	c2.2,0,4.2-1.6,6.5-1.3c1.1,0.1,1.4-1.7,0.3-2c-2.6-0.6-4.9-2-7.5-2.8c-1.2-0.4-2.5-0.7-3.8-0.7c-0.7,0-1.3,0.1-1.9,0.2
	c-0.3,0.1-1.2,0.4-1.5,0.2l-0.4,1.7c4.5-1.1,9.3,0,13,2.7L53,9.2C48.9,7.7,45.2,3,40.3,5c-0.9,0.3-1,1.7,0,1.9
	c1.8,0.5,3.7,1,5.4,1.7c1.3,0.5,2.7,1.3,3.2,2.7l1.5-1.1c-2.1-0.9-3.9-2.3-5.3-4.1l-0.9,1.5c1.1,0,2.1,0.6,2.6,1.6
	c0.6,1.1,2.4,0.1,1.7-1c-0.9-1.6-2.5-2.6-4.4-2.6c-0.7,0-1.3,0.9-0.9,1.5c1.6,2.1,3.6,3.8,6,4.8c0.7,0.3,1.8-0.2,1.5-1.1
	c-1.4-3.9-6.5-4.8-10-5.8v1.9C43,6,45.1,6.9,47,8s3.5,2.4,5.5,3.1c1.2,0.4,1.6-1.2,0.8-1.8c-4.1-3.1-9.5-4.1-14.5-2.9
	C38,6.5,37.8,7.5,38.3,8c0.8,0.9,2,0.7,3.1,0.4c1.5-0.3,2.9-0.1,4.3,0.3c2.8,0.8,5.3,2.4,8.1,3.1l0.3-2c-2.2-0.2-4.1,1.1-6.2,1.3
	S44.4,9.3,42.4,9c-1-0.1-1.9,1.3-0.8,1.8c2.6,1.3,5.5,1.7,8.4,1.3c0.8-0.1,1-1.5,0.2-1.8C46.3,8.4,42.1,7.7,37.9,7
	c-1.1-0.2-1.8,1.2-0.8,1.8c1.6,1,3.2,1.9,4.9,2.9c1.3,0.8,2.6,1.6,4,1.9c1.5,0.3,3.1,0,4.6-0.4c1.8-0.4,3.4-0.4,5.2-0.4
	c0.9,0,1.2-1.1,0.7-1.7c-3.2-3.9-7.3-8.3-12.8-8.3c-1.1,0-1.3,1.6-0.3,2c0.9,0.3,1.8,0.6,2.7,0.8V3.7c-0.9,0.2-1.9-0.3-2.8-0.4
	S41.6,3.5,40.8,4c-1.7,1-3.3,2.3-4.8,3.6C35.1,8.5,36.5,9.9,37.4,9L37.4,9L37.4,9z"/>
<path class="st0" d="M36.3,9.3c4.3-0.4,9.1-1.2,13.1,0.8c1.2,0.6,2.2-1.1,1-1.7C46,6.2,41.1,6.9,36.3,7.3
	C35.1,7.4,35.1,9.4,36.3,9.3C36.3,9.3,36.3,9.3,36.3,9.3z"/>
<path class="st0" d="M52.2,6.5c-0.3,0-0.6-0.1-0.8-0.1c-0.1,0-0.2-0.1-0.4-0.1c-0.1,0-0.3-0.1-0.4-0.1c0.1,0.1,0.1,0.1,0.1,0
	c0,0-0.1,0-0.1-0.1c-0.1,0-0.1-0.1-0.2-0.1s-0.1-0.1-0.2-0.1c-0.2-0.1,0.1,0.1,0,0c0,0-0.1-0.1-0.1-0.1c0-0.1-0.1-0.1,0,0
	c-0.1-0.2-0.2-0.3-0.3-0.5C48.8,4.1,47,4,46,5c-0.5,0.5-0.3,1.2,0.2,1.6c0.7,0.4,1.4,0.6,2.2,0.7c0.5,0,1-0.5,1-1c0-0.6-0.4-1-1-1
	c-0.1,0-0.1,0-0.2,0c0.2,0,0,0,0,0c-0.1,0-0.2-0.1-0.4-0.1c-0.1,0-0.1,0-0.2-0.1c0.1,0,0.1,0,0,0C47.5,5,47.3,5,47.2,4.9l0.2,1.6
	c0,0,0.2-0.1,0-0.1s0,0,0.1,0c0.1-0.1-0.1,0-0.1,0c0,0,0.1,0,0.2-0.1c0.2-0.1,0,0,0,0c0,0,0.2,0,0.2,0c0.2,0,0,0,0,0
	c0,0,0.1,0,0.1,0c0,0,0.2,0.1,0.1,0c-0.2-0.1,0,0,0.1,0c0.2,0.1-0.1-0.1,0,0c0,0,0.1,0.1,0.1,0.1c-0.1-0.1,0-0.1,0,0
	c0,0.1,0.1,0.1,0.1,0.2c0.1,0.2,0.2,0.3,0.4,0.5c0.8,0.8,1.9,1.1,3,1.2c0.5,0.1,1.1-0.1,1.2-0.7C53,7.3,52.7,6.6,52.2,6.5L52.2,6.5
	L52.2,6.5z"/>
<path class="st0" d="M31,16.1c-3-0.5-6.1,0.1-8.7,1.8c-2.7,1.9-4.2,4.8-5.7,7.6c-0.8,1.5-1.4,3.1-1.9,4.7s-1.1,3.1-2.3,4.5
	c-2.1,2.4-4.8,4.3-6.9,6.7c-1.1,1.2-2.2,2.5-3.1,3.9c-1.1,1.6-1.4,3.5-1.8,5.4c-0.6,3.7-0.8,7.4-0.3,11.1c0.4,3.3,1.1,6.7,2.6,9.6
	s4.1,4.9,6.8,6.6c5.8,3.6,12.6,5.5,19.4,5.9c5.7,0.4,11.9-0.4,16.5-4c1.6-1.3,3.4-2.5,4.7-4.1c1.8-2.3,3.2-5.1,4.1-7.9
	c2-6,2-13.2-0.4-19.1c-1.4-3.6-4-6.2-6-9.5c-2.1-3.4-3.4-7.1-4-11c-0.5-3.2-1.6-6-4.1-8.2S34.2,16.6,31,16.1
	c-1.3-0.2-1.8,1.7-0.5,1.9c5.4,0.8,10.2,3.8,11.3,9.4c0.6,3.1,1.2,6.1,2.5,9.1s3.1,5.4,5,8c3.8,5.1,5,11.2,4.3,17.4
	c-0.3,2.9-1.1,5.7-2.3,8.3c-1,2.1-2.1,4.1-3.8,5.6c-1.5,1.3-3,2.6-4.6,3.6c-2.3,1.4-5.3,2.1-8,2.4c-6.2,0.7-12.9-0.5-18.7-2.8
	c-2.9-1.2-5.8-2.8-8.2-4.8s-3.9-4.8-4.7-7.8C2.2,63,1.9,59.5,2,56.1c0.1-1.6,0.2-3.3,0.5-4.9c0.3-1.8,0.6-3.6,1.7-5.1
	c2-2.9,4.5-5.3,7.2-7.7c2.5-2.2,4.3-4.3,5.3-7.5s2.7-7,4.9-9.6s5.6-3.8,8.9-3.3C31.7,18.2,32.3,16.3,31,16.1L31,16.1L31,16.1z"/>
<path class="st0" d="M30,16.4c-0.2-1.6-0.3-3.2-0.3-4.8c0-1.5-0.1-3.1,0.3-4.5c0.4-1.3,1.3-2.3,2.2-3.3c0.7-0.8,1.7-2.1,2.9-1.9
	c1.6,0.3,0.2,1.6-0.3,2.2c-0.9,0.9-1.7,2-2.2,3.2C32,8.8,32,10.3,32,11.8c0.1,1.6-0.1,3.2-0.6,4.8c-0.4,1.2,1.6,1.8,1.9,0.5
	c0.4-1.4,0.7-2.9,0.7-4.4c0-1.4-0.2-2.8,0.2-4.1c0.4-1.2,1.3-2.2,2.2-3.2c0.8-0.8,1.6-1.8,1.4-3c-0.1-1.1-1-1.9-2-2.2
	c-1.1-0.3-2.3,0-3.3,0.7S30.8,2.4,30,3.3c-0.9,1-1.6,2.1-1.9,3.4c-0.4,1.5-0.4,3.1-0.4,4.6c0,1.7,0.1,3.4,0.3,5.1
	C28.2,17.7,30.2,17.7,30,16.4L30,16.4L30,16.4z"/>
<path class="st0" d="M33.7,10.1c2.4-0.4,4.4,0.3,6.3,1.6c1.7,1.2,3.5,2.2,5.5,2.7s3.8,0.3,5.8-0.3c2.3-0.7,4.4-0.7,6.6,0.3
	c0.8,0.4,2-0.4,1.4-1.4c-3-4.5-6.5-8.9-11.8-10.6c-2.2-0.7-5.1-1-7.2,0.2c-1.1,0.6-1.8,1.6-2.7,2.5c-1,1.1-2.3,1.8-3.7,2.2
	c-1.2,0.4-0.7,2.3,0.5,1.9c2.2-0.7,3.8-1.9,5.4-3.6c0.9-1,1.8-1.6,3.2-1.8c1.2-0.1,2.5,0,3.6,0.4c5,1.4,8.3,5.7,11,9.8l1.4-1.4
	c-2-0.9-4.2-1.3-6.4-0.9c-1,0.2-2,0.6-3,0.8c-1.3,0.3-2.6,0.2-3.9-0.2c-2.3-0.7-4.1-2.3-6.2-3.4c-2-1-4.1-1.2-6.3-0.8
	C31.9,8.4,32.4,10.4,33.7,10.1L33.7,10.1L33.7,10.1z"/>
</svg>
